<svg xmlns="http://www.w3.org/2000/svg" viewBox="0 0 42 42">
  <g transform="translate(-2.999 -2.999)">
    <path d="M-11612-2388a20.861,20.861,0,0,1-14.849-6.15A20.862,20.862,0,0,1-11633-2409a20.862,20.862,0,0,1,6.151-14.849A20.861,20.861,0,0,1-11612-2430a20.863,20.863,0,0,1,14.85,6.151A20.865,20.865,0,0,1-11591-2409a20.865,20.865,0,0,1-6.15,14.85A20.863,20.863,0,0,1-11612-2388Zm-8.6-22.4h0l-2.8,2.8,8.4,8.4,16.4-16.4-2.8-2.8-13.6,13.6-5.6-5.6Z" transform="translate(11636 2433)" fill="#f5c8ff"/>
  </g>
</svg>
