<svg xmlns="http://www.w3.org/2000/svg" viewBox="0 0 762.4 140.02"><defs><style>.cls-1{fill:#fff;}.cls-2{fill:#a03535;}</style></defs><g id="Layer_2" data-name="Layer 2"><g id="Layer_1-2" data-name="Layer 1"><path class="cls-1" d="M0,62.68a4.24,4.24,0,0,1,3.76-4.19,11.07,11.07,0,0,0,5.13-1.66q2.55-1.87,2.55-6a66.39,66.39,0,0,0-1.37-10.45A86.93,86.93,0,0,1,8.33,25.74q0-12.31,7.59-19T36.56,0h5.22A4.23,4.23,0,0,1,46,4.23V17.78A4.23,4.23,0,0,1,41.78,22h0q-4,0-5.66,1.74a6.87,6.87,0,0,0-1.68,5q0,2,1,10A112.26,112.26,0,0,1,36.68,52q0,7.34-3.35,12c-2.24,3.1-5.6,5.08-10.08,5.9v.25Q30,71.38,33.33,76t3.35,12a112.14,112.14,0,0,1-1.24,13.3q-1,8-1,10a6.9,6.9,0,0,0,1.68,5c1.12,1.15,3,1.74,5.66,1.74h0A4.22,4.22,0,0,1,46,122.23v13.56A4.23,4.23,0,0,1,41.78,140H36.56q-13.07,0-20.64-6.72t-7.59-19A86.91,86.91,0,0,1,10.07,99.6a66.17,66.17,0,0,0,1.37-10.44,7.08,7.08,0,0,0-2.61-5.91,10.66,10.66,0,0,0-5.12-1.83A4.24,4.24,0,0,1,0,77.24Z"/><path class="cls-1" d="M753.57,83.25A7.08,7.08,0,0,0,751,89.16a66.17,66.17,0,0,0,1.37,10.44,86.91,86.91,0,0,1,1.74,14.68q0,12.3-7.58,19T725.84,140h-5.22a4.24,4.24,0,0,1-4.23-4.23V122.23a4.23,4.23,0,0,1,4.23-4.22h0c2.65,0,4.54-.59,5.66-1.74a6.9,6.9,0,0,0,1.68-5q0-2-1-10A112.14,112.14,0,0,1,725.72,88q0-7.33,3.36-12t10.07-5.91v-.25c-4.48-.82-7.83-2.8-10.07-5.9s-3.36-7.11-3.36-12A112.26,112.26,0,0,1,727,38.67q1-8,1-10a6.87,6.87,0,0,0-1.68-5Q724.6,22,720.62,22h0a4.23,4.23,0,0,1-4.23-4.23V4.23A4.23,4.23,0,0,1,720.62,0h5.22q13.06,0,20.65,6.71t7.58,19a86.93,86.93,0,0,1-1.74,14.67A66.39,66.39,0,0,0,751,50.86q0,4.1,2.55,6a11.07,11.07,0,0,0,5.13,1.66,4.24,4.24,0,0,1,3.76,4.19V77.24a4.24,4.24,0,0,1-3.71,4.18A10.7,10.7,0,0,0,753.57,83.25Z"/><rect class="cls-1" x="242.79" y="46.08" width="27.6" height="70.13"/><circle class="cls-2" cx="256.59" cy="26.8" r="15.92"/><path class="cls-1" d="M116.58,58.26a10.68,10.68,0,0,0-4.6-4,16.64,16.64,0,0,0-7.21-1.43q-8,0-12.31,5.16T88.1,72.06Q88.1,82.4,93,87.48t14.93,5.1a18.43,18.43,0,0,0,15.42-7.71h-22V65.35h44.88V93a52.86,52.86,0,0,1-15.79,16.85q-10.06,7-25.49,7-13.68,0-23.81-5.66A38.42,38.42,0,0,1,65.53,95.32a48.94,48.94,0,0,1-5.4-23.26,48.93,48.93,0,0,1,5.4-23.25A38.52,38.52,0,0,1,81,33q10.07-5.66,23.62-5.66,17.28,0,28.17,8.33t12.87,22.63Z"/><path class="cls-1" d="M230.36,46.08v70.13h-27.6v-10.7a25,25,0,0,1-8.65,8.09,25.39,25.39,0,0,1-12.87,3.11q-12.06,0-18.84-8.09t-6.77-21.88V46.08h27.48V83.25a11.25,11.25,0,0,0,2.67,7.9,10.29,10.29,0,0,0,14.36,0,11.41,11.41,0,0,0,2.62-7.9V46.08Z"/><path class="cls-1" d="M310.44,24.19v92H282.83v-92Z"/><path class="cls-1" d="M350.48,24.19v92H322.87v-92Z"/><path class="cls-1" d="M430.43,86H386q.61,9.08,7.59,9.08a6.72,6.72,0,0,0,6.46-4.1h29.22A30.31,30.31,0,0,1,423,104.33,33.71,33.71,0,0,1,411,113.66a37.1,37.1,0,0,1-16,3.42,38.86,38.86,0,0,1-18.59-4.35,30.9,30.9,0,0,1-12.68-12.5,38.53,38.53,0,0,1-4.54-19.09,38.56,38.56,0,0,1,4.54-19.09A30.94,30.94,0,0,1,376.4,49.56,38.86,38.86,0,0,1,395,45.2a39.27,39.27,0,0,1,18.59,4.3,30.86,30.86,0,0,1,12.69,12.24,37.36,37.36,0,0,1,4.54,18.78A38.4,38.4,0,0,1,430.43,86Zm-27.6-12.06a6.42,6.42,0,0,0-2.24-5.29,8.65,8.65,0,0,0-5.6-1.8q-7.33,0-8.58,7.09Z"/><path class="cls-1" d="M477.44,49.25a24.2,24.2,0,0,1,12.68-3.67V75.05h-7.83q-7.85,0-11.51,2.73t-3.67,9.7v28.73h-27.6V46.08h27.6V59A33.44,33.44,0,0,1,477.44,49.25Z"/><path class="cls-1" d="M612,53.66q7.4,8.09,7.4,21.89v40.66H592V79a9.25,9.25,0,0,0-2.67-7,11.4,11.4,0,0,0-14.37,0,9.37,9.37,0,0,0-2.61,7v37.18H544.83V79a9.25,9.25,0,0,0-2.67-7,11.38,11.38,0,0,0-14.36,0,9.38,9.38,0,0,0-2.62,7v37.18h-27.6V46.08h27.6v9.44a22,22,0,0,1,8.15-7.21,25.56,25.56,0,0,1,12.12-2.73,26.92,26.92,0,0,1,13.43,3.29,24.71,24.71,0,0,1,9.33,9.27,31.6,31.6,0,0,1,9.82-9,25.35,25.35,0,0,1,13.18-3.54Q604.65,45.58,612,53.66Z"/><path class="cls-1" d="M645.68,112.73a32.07,32.07,0,0,1-13.25-12.5,37,37,0,0,1-4.78-19.09,37,37,0,0,1,4.78-19.09,32.11,32.11,0,0,1,13.25-12.49,43.69,43.69,0,0,1,38.05,0A32.14,32.14,0,0,1,697,62.05a37,37,0,0,1,4.79,19.09A37,37,0,0,1,697,100.23a32.1,32.1,0,0,1-13.24,12.5,43.78,43.78,0,0,1-38.05,0Zm25.49-22.57q2.61-3,2.61-9t-2.61-9a8.38,8.38,0,0,0-12.93,0c-1.74,2-2.62,5-2.62,9s.85,7,2.55,9a8.47,8.47,0,0,0,13,0Z"/></g></g></svg>