<svg id="Grupo_125" data-name="Grupo 125" xmlns="http://www.w3.org/2000/svg" width="119.053" height="109.6" viewBox="0 0 119.053 109.6">
  <path id="Trazado_1" data-name="Trazado 1" d="M85.317.122c-1.583,6.632-2.332,13.5-9.737,16.325a18.075,18.075,0,0,1-5.963,1.076c-6.956.154-13.919.068-20.877.144a9.1,9.1,0,0,0-8.784,8.322,9.272,9.272,0,0,0,6.611,9.743,16.518,16.518,0,0,0,4.075.564c7.624.047,15.249.016,22.865,0,2.09,0,2.178.131,1.627,2.173-1.228,4.527-2.468,9.045-3.636,13.582a1.9,1.9,0,0,1-2.105,1.669H69.3c-6.627-.057-13.256-.031-19.882-.026a26.694,26.694,0,0,1-26.5-31.4C24.8,12.022,31.168,5.2,40.932,1.571A27.543,27.543,0,0,1,50.839-.022C61.721.054,72.6.017,83.489.025,84.011.033,84.533.083,85.317.122Z" transform="translate(-16.623 0.03)" fill="#540f64"/>
  <path id="Trazado_2" data-name="Trazado 2" d="M217.832,224.374c-3.2,0-6.4.044-9.6-.021a2.144,2.144,0,0,0-2.434,1.813v.068c-.883,3.479-1.878,6.922-2.74,10.4-.334,1.35-.833,1.8-2.3,1.335A42.152,42.152,0,0,1,187.507,231a2.129,2.129,0,0,1-.682-1.763c1.794-7,3.693-13.971,5.543-20.951a1.745,1.745,0,0,1,2.006-1.437h.018q22.348.06,44.7.044c1.878,0,2.04.2,1.484,2.045-1.027,3.411-1.4,7.052-3.657,10.035a12.323,12.323,0,0,1-9.489,5.292c-3.192.154-6.4.034-9.6.034Z" transform="translate(-138.02 -152.799)" fill="#540f64"/>
  <path id="Trazado_3" data-name="Trazado 3" d="M265.874,87.986a6.132,6.132,0,0,1-1.126-1.909c-1.306-3.155-.376-6.713,2.586-9.758,2.839-3.134,7.65-3.879,11.521-4.474.7-.107,1.387-.214,2.043-.329a18.853,18.853,0,0,0,3.448-.906H256.763v.031q-10.014,0-20.023-.031a1.753,1.753,0,0,0-2,1.455h0a.907.907,0,0,0-.016.118c-1.168,4.613-2.5,9.181-3.748,13.775-.494,1.813-.355,1.993,1.551,2h24.242Z" transform="translate(-170.464 -52.142)" fill="#540f64"/>
  <path id="Trazado_4" data-name="Trazado 4" d="M391.052,72.753c-.086-.3-.225-1.136-.7-.752a16.565,16.565,0,0,1-7.313,2.873c-4.049.724-9.549,1.045-12.24,4.069-1.985,2.032-3.181,4.6-2.09,7.144,1.471,4.15,9.142,3.153,12.613,2.283C388.427,86.555,391.786,79.406,391.052,72.753Z" transform="translate(-272.098 -53.114)" fill="#540f64"/>
  <g id="Grupo_3" data-name="Grupo 3" transform="translate(0 75.005)">
    <path id="Trazado_16" data-name="Trazado 16" d="M105.956,303.356A48.024,48.024,0,0,1,79.2,295.52s-10.448-8.39-19.665-8.39c-9.855,0-20.031,7.559-20.031,7.559,8.358-5.425,15.9-4.9,15.9-4.9,13.036,0,24.03,18.085,45.971,18.085s32.858-17.027,32.858-17.027A37.184,37.184,0,0,1,105.956,303.356Z" transform="translate(-29.183 -287.13)" fill="#540f64"/>
    <path id="Trazado_17" data-name="Trazado 17" d="M82.739,325.37c-13.321-.149-20.8-4.673-27.177-9.092-4.255-3.4-11.678-8.938-19.7-8.938-7.836,0-17.5,7.554-21.173,10.675,4.874-3.85,12.94-6.582,17.558-6.433,19.509.643,23.636,17.3,45.579,17.3s31.866-14.267,31.866-14.267S101.277,325.37,82.739,325.37Z" transform="translate(-10.853 -302.061)" fill="#540f64"/>
    <path id="Trazado_18" data-name="Trazado 18" d="M68.068,348.572c-11.6.7-21.917-5.164-27.376-9.594-4.153-3.367-10.351-8.189-19.14-8.189-13.454,0-21.551,10-21.551,10,8.358-5.425,19.039-5.036,19.039-5.036,16.226,0,23.058,18.231,44.458,18.231,21.94,0,35.316-18.992,35.316-18.992S86.6,348.572,68.068,348.572Z" transform="translate(0 -319.386)" fill="#540f64"/>
  </g>
</svg>
