<svg id="Layer_2" data-name="Layer 2" xmlns="http://www.w3.org/2000/svg" width="140.725" height="109.6" viewBox="0 0 140.725 109.6">
  <g id="Layer_1" data-name="Layer 1" transform="translate(0 0)">
    <path id="Trazado_170" data-name="Trazado 170" d="M0,49.065a3.322,3.322,0,0,1,2.947-3.282,8.6,8.6,0,0,0,4.011-1.3,5.4,5.4,0,0,0,2-4.674,51.5,51.5,0,0,0-1.071-8.167A67.646,67.646,0,0,1,6.52,20.159q0-9.635,5.939-14.893T28.617,0H32.7a3.308,3.308,0,0,1,3.308,3.308V13.92A3.308,3.308,0,0,1,32.7,17.228h0q-3.118,0-4.429,1.362a5.418,5.418,0,0,0-1.316,3.9q0,1.559.78,7.8A88.823,88.823,0,0,1,28.708,40.7a15.694,15.694,0,0,1-2.626,9.392A11.858,11.858,0,0,1,18.2,54.7v.186a11.914,11.914,0,0,1,7.885,4.623A15.68,15.68,0,0,1,28.713,68.9a88.318,88.318,0,0,1-.973,10.416q-.783,6.227-.78,7.786A5.4,5.4,0,0,0,28.277,91q1.316,1.37,4.429,1.364h0a3.308,3.308,0,0,1,3.3,3.311v10.613A3.307,3.307,0,0,1,32.7,109.6H28.617q-10.221,0-16.159-5.256T6.518,89.451A68.014,68.014,0,0,1,7.883,77.966,51.826,51.826,0,0,0,8.954,69.79a5.536,5.536,0,0,0-2.042-4.623,8.245,8.245,0,0,0-4.005-1.431A3.324,3.324,0,0,1,0,60.459Z" transform="translate(0 0)" fill="#540f64"/>
    <path id="Trazado_171" data-name="Trazado 171" d="M593.279,65.166a5.533,5.533,0,0,0-2.042,4.623,51.555,51.555,0,0,0,1.071,8.176,67.991,67.991,0,0,1,1.364,11.485q0,9.635-5.939,14.893t-16.17,5.256h-4.083a3.308,3.308,0,0,1-3.307-3.307V95.68a3.308,3.308,0,0,1,3.307-3.308h0q3.115,0,4.43-1.364a5.384,5.384,0,0,0,1.314-3.9q0-1.557-.78-7.786a87.728,87.728,0,0,1-.973-10.416,15.694,15.694,0,0,1,2.628-9.394,11.9,11.9,0,0,1,7.885-4.623v-.186a11.879,11.879,0,0,1-7.885-4.623,15.719,15.719,0,0,1-2.628-9.392,88.231,88.231,0,0,1,.973-10.416q.78-6.229.78-7.786a5.4,5.4,0,0,0-1.314-3.9q-1.314-1.366-4.43-1.362h0a3.308,3.308,0,0,1-3.309-3.308V3.308A3.308,3.308,0,0,1,567.479,0h4.083q10.221,0,16.159,5.255t5.939,14.893A68.017,68.017,0,0,1,592.3,31.633a51.458,51.458,0,0,0-1.071,8.167,5.4,5.4,0,0,0,2,4.674,8.591,8.591,0,0,0,4.011,1.3,3.322,3.322,0,0,1,2.947,3.282V60.448a3.324,3.324,0,0,1-2.9,3.276A8.277,8.277,0,0,0,593.279,65.166Z" transform="translate(-459.457 0)" fill="#540f64"/>
    <circle id="Elipse_44" data-name="Elipse 44" cx="7.406" cy="7.406" r="7.406" transform="translate(43.393 47.395)" fill="#540f64"/>
    <circle id="Elipse_45" data-name="Elipse 45" cx="7.406" cy="7.406" r="7.406" transform="translate(62.958 47.395)" fill="#540f64"/>
    <circle id="Elipse_46" data-name="Elipse 46" cx="7.406" cy="7.406" r="7.406" transform="translate(82.522 47.395)" fill="#540f64"/>
  </g>
</svg>
