<svg xmlns="http://www.w3.org/2000/svg" viewBox="0 0 109.143 109.6">
  <circle cx="4.058" cy="4.058" r="4.058" transform="translate(29.837 40.193)" fill="#540f64"/>
  <circle cx="4.058" cy="4.058" r="4.058" transform="translate(13.255 55.103)" fill="#540f64"/>
  <path d="M55.878,76.8h0A1.178,1.178,0,0,1,54.7,75.625V57.533a5.951,5.951,0,0,1,5.824-5.9,3.628,3.628,0,0,0,3.708-3.517V35.7l-.191-6.874a1.178,1.178,0,0,1,2.339,0l.191,6.922V48.176a5.951,5.951,0,0,1-6,5.856,3.612,3.612,0,0,0-3.533,3.58V75.689A1.178,1.178,0,0,1,55.878,76.8Z" transform="translate(-31.611 16.426)" fill="#540f64"/>
  <path d="M51.682,55.681h0a1.162,1.162,0,0,1-1.162-1.162V35.774a6.11,6.11,0,0,1,6.11-6.094h0a3.755,3.755,0,0,0,3.755-3.739V13.131l-.191-7.113a1.178,1.178,0,1,1,2.339,0l.207,7.161V26A6.11,6.11,0,0,1,56.646,32.1h0a3.755,3.755,0,0,0-3.771,3.676V54.5a1.162,1.162,0,0,1-1.193,1.178Z" transform="translate(-34.082 2.779)" fill="#540f64"/>
  <path d="M123.969,9.976A52.877,52.877,0,0,0,40.19,51.985,52.02,52.02,0,0,0,70.43,99.232a20.861,20.861,0,0,0,3.749-2.724h0A48.008,48.008,0,0,1,93.019,3.993a48.978,48.978,0,0,1,27.051,8.1h0Z" transform="translate(-40.19 -0.001)" fill="#540f64"/>
  <path d="M124.758,17.2l-1.082,7.129h0a47.292,47.292,0,0,1,3.358,17.679A48.39,48.39,0,0,1,78.246,90.079a49.518,49.518,0,0,1-9.993-1.1h0L64.88,92.306a53.481,53.481,0,0,0,13.351,1.7,52.4,52.4,0,0,0,52.845-51.986A51.317,51.317,0,0,0,124.758,17.2Z" transform="translate(-25.592 10.167)" fill="#540f64"/>
  <path d="M73.362,98.52c3.007-3.071,5.187-5.585,5.187-5.585,23.121-.493,42.375-22.277,46.146-36.2,1.7-6.365,3.739-18.983,4.646-24.791.286-1.878.461-3.055.461-3.055.159-1.225.366-2.419.589-3.58A60.467,60.467,0,0,1,141.34.5a191.913,191.913,0,0,0-24.2,10.041c-1.353.684-2.673,1.368-3.962,2.069C52.581,45.389,74.062,90.1,74.062,90.1A59.816,59.816,0,0,1,67.7,96.77,36.728,36.728,0,0,1,64.022,99.6a14.321,14.321,0,0,1-6.476,2.848c-7.3-1.13-3.1,9.547,3.644,6.206a43.6,43.6,0,0,0,8.9-6.874C71.214,100.684,72.344,99.57,73.362,98.52Z" transform="translate(-32.196 0.294)" fill="#540f64"/>
</svg>
