<svg id="Grupo_127" data-name="Grupo 127" xmlns="http://www.w3.org/2000/svg" width="42.039" height="109.6" viewBox="0 0 42.039 109.6">
  <path id="Trazado_134" data-name="Trazado 134" d="M127.179,136.69c-.9-.454-.454-.9-.454-.9,2.252-1.809.454-3.378.454-3.378-7.683-8.134-7.909-8.588-7.458-9.943a6.351,6.351,0,0,0,.225-2.714c-2.939-2.031-2.71-2.252-2.71-2.252-4.748-4.065-3.844-27.569-3.844-27.569s8.813-.9,9.038-2.71-4.5-1.809-3.615-2.939-2.939-1.355-3.378-1.809,0-2.031,0-2.031c3.164-1.584,0-3.164,0-3.164l4.744-9.943c2.939-4.973-6.1-3.844-6.1-3.844l-.338.113c-.454-1.809-1.126-1.809-1.809-1.809s-.679-.225-.679-.225a1.361,1.361,0,0,0,0-2.252,2.443,2.443,0,0,1-.676-1.58h3.277V52.38H100.74v5.311h3.277a2.436,2.436,0,0,1-.679,1.58,1.361,1.361,0,0,0,0,2.252s0,.225-.679.225-1.355,0-1.805,1.809l-.342-.113s-9.038-1.126-6.1,3.844l4.744,9.943s-3.164,1.58,0,3.164c0,0,.454,1.58,0,2.031s-4.294.679-3.378,1.809-3.84,1.126-3.615,2.939,9.02,2.717,9.02,2.717.9,23.5-3.84,27.569c0,0,.225.229-2.714,2.252a6.351,6.351,0,0,0,.225,2.714c.454,1.355.225,1.809-7.458,9.943,0,0-1.805,1.58.454,3.378,0,0,.45.45-.454.9s-1.126,1.126-1.126,2.485v2.252l.683.931h40.676l.679-.9v-2.252C128.309,137.816,128.083,137.121,127.179,136.69Z" transform="translate(-86.27 -32.719)" fill="#540f64"/>
  <circle id="Elipse_40" data-name="Elipse 40" cx="8.25" cy="8.25" r="8.25" transform="translate(12.661)" fill="#540f64"/>
</svg>
