<svg xmlns="http://www.w3.org/2000/svg" viewBox="0 0 758.2 590.5"><defs><style>.cls-1{fill:#fff;}.cls-2{fill:#a03535;}</style></defs><g id="Layer_2" data-name="Layer 2"><g id="Layer_1-2" data-name="Layer 1"><path class="cls-1" d="M0,264.35a17.9,17.9,0,0,1,15.88-17.68q14.4-1.74,21.61-7,10.75-7.86,10.76-25.18,0-13.08-5.77-44-7.36-39.84-7.35-61.88,0-51.91,32-80.24T154.18,0h22A17.82,17.82,0,0,1,194,17.82V75a17.82,17.82,0,0,1-17.82,17.82h0q-16.8,0-23.86,7.34t-7.09,21q0,8.4,4.2,42,5.23,38.82,5.24,56.12,0,30.94-14.15,50.6T98.07,294.72v1q28.32,5.25,42.48,24.91t14.15,50.61q0,17.29-5.24,56.12-4.22,33.55-4.2,41.95,0,13.62,7.09,21t23.86,7.35h0A17.82,17.82,0,0,1,194,515.5v57.18a17.82,17.82,0,0,1-17.82,17.82h-22q-55.07,0-87.06-28.32t-32-80.24q0-22,7.35-61.88,5.76-30.93,5.77-44.05,0-16.25-11-24.91-7.38-5.79-21.58-7.71A17.91,17.91,0,0,1,0,325.74Z"/><path class="cls-1" d="M721,351.1q-11,8.65-11,24.91,0,13.11,5.77,44.05,7.35,39.87,7.35,61.88,0,51.91-32,80.24T604,590.5H582a17.82,17.82,0,0,1-17.82-17.82V515.5A17.82,17.82,0,0,1,582,497.68h0q16.78,0,23.87-7.35t7.08-21q0-8.39-4.2-41.95-5.25-38.82-5.24-56.12,0-30.94,14.16-50.61t42.48-24.91v-1q-28.33-5.22-42.48-24.91t-14.16-50.6q0-17.31,5.24-56.12,4.2-33.56,4.2-41.95,0-13.64-7.08-21T582,92.82h0A17.82,17.82,0,0,1,564.17,75V17.82A17.82,17.82,0,0,1,582,0h22q55.07,0,87.06,28.31t32,80.24q0,22-7.35,61.88-5.78,31-5.77,44,0,17.33,10.76,25.18,7.2,5.26,21.61,7a17.9,17.9,0,0,1,15.88,17.68v61.39a17.91,17.91,0,0,1-15.65,17.65Q728.35,345.31,721,351.1Z"/><circle class="cls-2" cx="273.69" cy="295.25" r="39.9"/><circle class="cls-2" cx="379.1" cy="295.25" r="39.9"/><circle class="cls-2" cx="484.51" cy="295.25" r="39.9"/></g></g></svg>