<svg xmlns="http://www.w3.org/2000/svg" viewBox="0 0 30 30">
  <path d="M-9872-1115a14.906,14.906,0,0,1-10.608-4.394A14.906,14.906,0,0,1-9887-1130a14.9,14.9,0,0,1,4.394-10.606A14.906,14.906,0,0,1-9872-1145a14.9,14.9,0,0,1,10.606,4.394A14.9,14.9,0,0,1-9857-1130a14.907,14.907,0,0,1-4.394,10.608A14.9,14.9,0,0,1-9872-1115Zm1.591-7.05h0l4.968,1.556a.842.842,0,0,0,.255.04.856.856,0,0,0,.672-.336.86.86,0,0,0,.147-.751l-1.085-4.04a8.648,8.648,0,0,0,1.452-4.814,8.565,8.565,0,0,0-8.5-8.608,8.565,8.565,0,0,0-8.5,8.608,8.565,8.565,0,0,0,8.5,8.608,8.451,8.451,0,0,0,2.092-.263Z" transform="translate(9887.001 1145)" fill="#f5c8ff"/>
</svg>
