<svg xmlns="http://www.w3.org/2000/svg" viewBox="0 0 30.002 30.001">
  <path d="M-9872-1115a14.906,14.906,0,0,1-10.608-4.394A14.906,14.906,0,0,1-9887-1130a14.9,14.9,0,0,1,4.394-10.606A14.906,14.906,0,0,1-9872-1145a14.9,14.9,0,0,1,10.606,4.394A14.9,14.9,0,0,1-9857-1130a14.907,14.907,0,0,1-4.394,10.608A14.9,14.9,0,0,1-9872-1115Zm-7-24a2.033,2.033,0,0,0-1.479.641,1.9,1.9,0,0,0-.521,1.431,16.993,16.993,0,0,0,15.888,15.888c.04,0,.082,0,.122,0a1.911,1.911,0,0,0,1.379-.593,2.02,2.02,0,0,0,.571-1.411v-1.729a1.984,1.984,0,0,0-1.76-1.98l-2.541-.29a2.037,2.037,0,0,0-.229-.013,1.978,1.978,0,0,0-1.41.584l-1.841,1.841a15.147,15.147,0,0,1-6.591-6.59l1.852-1.851a1.991,1.991,0,0,0,.57-1.64l-.29-2.519a2.01,2.01,0,0,0-1.99-1.772Z" transform="translate(9887.001 1145)" fill="#f5c8ff"/>
</svg>
