<?xml version="1.0" encoding="iso-8859-1"?>
<!-- Generator: Adobe Illustrator 19.0.0, SVG Export Plug-In . SVG Version: 6.00 Build 0)  -->
<svg xmlns="http://www.w3.org/2000/svg" xmlns:xlink="http://www.w3.org/1999/xlink" version="1.1" id="Capa_1" x="0px" y="0px" viewBox="0 0 512 512" style="enable-background:new 0 0 512 512;" xml:space="preserve">
<path style="fill:#4D4D4D;" d="M407,276l30,206c41.355,0,75-33.645,75-75V296L407,276z"/>
<path style="fill:#272727;" d="M512,256c0-68.38-26.629-132.667-74.98-181.02C388.667,26.629,324.38,0,256,0l-30,37.5L256,75  c96.202,0,175.413,74.997,180.71,170.896V251l-30,45H512V256z"/>
<path style="fill:#737373;" d="M0,407c0,41.355,33.645,75,75,75l30-216L0,296V407z"/>
<g>
	<path style="fill:#4D4D4D;" d="M74.98,74.98C26.629,123.333,0,187.62,0,256v40h105.29l-30-45v-5.103   C80.587,149.997,159.798,75,256,75V0C187.62,0,123.333,26.629,74.98,74.98z"/>
	<path style="fill:#4D4D4D;" d="M135,251L95,381.5L135,512c41.355,0,75-33.645,75-75V326C210,284.645,176.355,251,135,251z"/>
</g>
<g>
	<rect x="75.29" y="251" style="fill:#272727;" width="59.71" height="261"/>
	<path style="fill:#272727;" d="M377,251l40,130.5L377,512c-41.355,0-75-33.645-75-75V326C302,284.645,335.645,251,377,251z"/>
</g>
<rect x="377" y="251" width="59.71" height="261"/>
<g>
</g>
<g>
</g>
<g>
</g>
<g>
</g>
<g>
</g>
<g>
</g>
<g>
</g>
<g>
</g>
<g>
</g>
<g>
</g>
<g>
</g>
<g>
</g>
<g>
</g>
<g>
</g>
<g>
</g>
</svg>
