<svg id="Page-1" xmlns="http://www.w3.org/2000/svg" width="30" height="30" viewBox="0 0 30 30">
  <defs>
    <style>
      .cls-1 {
        fill: #fff;
        fill-rule: evenodd;
      }
    </style>
  </defs>
  <g id="Dribbble-Light-Preview">
    <g id="icons">
      <path id="github-_142_" data-name="github-[#142]" class="cls-1" d="M99,7399a15.192,15.192,0,0,1,15,15.376,15.361,15.361,0,0,1-10.25,14.6c-.76.15-1.03-.331-1.03-.734,0-.511.018-2.162.018-4.231a3.715,3.715,0,0,0-1.018-2.835c3.34-.39,6.85-1.679,6.85-7.589a5.992,5.992,0,0,0-1.545-4.126,5.674,5.674,0,0,0-.147-4.081s-1.257-.4-4.121,1.575a14.105,14.105,0,0,0-7.512,0c-2.867-1.979-4.126-1.575-4.126-1.575a5.7,5.7,0,0,0-.145,4.081,6.013,6.013,0,0,0-1.545,4.126c0,5.9,3.5,7.214,6.834,7.605a3.248,3.248,0,0,0-.953,2.055,3.154,3.154,0,0,1-4.365-1.291,3.154,3.154,0,0,0-2.3-1.575s-1.462-.03-.1.931a4.088,4.088,0,0,1,1.665,2.25s.88,2.746,5.054,1.815c.007,1.29.021,2.505.021,2.866,0,.4-.276.884-1.024.734A15.348,15.348,0,0,1,84,7414.376,15.193,15.193,0,0,1,99,7399" transform="translate(-84 -7399)"/>
    </g>
  </g>
</svg>
