<svg xmlns="http://www.w3.org/2000/svg" width="30" height="30" viewBox="0 0 30 30">
  <defs>
    <style>
      .cls-1 {
        fill: #fff;
        fill-rule: evenodd;
      }
    </style>
  </defs>
  <path id="linkedin" class="cls-1" d="M15,0A15,15,0,1,0,30,15,15,15,0,0,0,15,0ZM7.2,12.424h3.4V22.637H7.2Zm3.623-3.159A1.766,1.766,0,0,0,8.923,7.5a1.77,1.77,0,1,0-.044,3.53H8.9A1.773,1.773,0,0,0,10.824,9.264Zm8.121,2.92c2.237,0,3.914,1.46,3.914,4.6v5.856h-3.4V17.173c0-1.373-.492-2.309-1.722-2.309a1.86,1.86,0,0,0-1.744,1.241,2.322,2.322,0,0,0-.112.828v5.7h-3.4s.045-9.255,0-10.214h3.4v1.447A3.375,3.375,0,0,1,18.946,12.184Z"/>
</svg>
