<svg id="web" xmlns="http://www.w3.org/2000/svg" width="23" height="23" viewBox="0 0 23 23">
  <g id="Grupo_72" data-name="Grupo 72">
    <path id="Trazado_82" data-name="Trazado 82" d="M11.5,0A11.5,11.5,0,1,0,23,11.5,11.513,11.513,0,0,0,11.5,0ZM7.761,2.226a11.657,11.657,0,0,0-1.577,3.16,10.7,10.7,0,0,1-1.846-.858A10.036,10.036,0,0,1,7.761,2.226Zm-4.4,3.466a12.123,12.123,0,0,0,2.41,1.137,20.081,20.081,0,0,0-.511,3.921H1.528A9.941,9.941,0,0,1,3.364,5.692Zm0,11.617A9.941,9.941,0,0,1,1.528,12.25H5.263a20.08,20.08,0,0,0,.511,3.921A12.127,12.127,0,0,0,3.364,17.308Zm.974,1.163a10.7,10.7,0,0,1,1.846-.858,11.657,11.657,0,0,0,1.577,3.16A10.034,10.034,0,0,1,4.338,18.471Zm6.412,2.89c-1.549-.568-2.593-2.6-3.127-4.173a16.514,16.514,0,0,1,3.127-.422Zm0-6.1a18,18,0,0,0-3.536.482,18.592,18.592,0,0,1-.451-3.5H10.75Zm0-4.515H6.764a18.585,18.585,0,0,1,.451-3.5,18,18,0,0,0,3.536.482Zm0-4.516a16.515,16.515,0,0,1-3.127-.422c.534-1.568,1.578-3.6,3.127-4.173Zm8.886-.542a9.941,9.941,0,0,1,1.836,5.058H17.737a20.08,20.08,0,0,0-.511-3.921A12.126,12.126,0,0,0,19.636,5.692Zm-.974-1.163a10.7,10.7,0,0,1-1.846.858,11.657,11.657,0,0,0-1.577-3.16A10.034,10.034,0,0,1,18.662,4.529ZM12.25,1.638c1.549.568,2.593,2.6,3.127,4.173a16.513,16.513,0,0,1-3.127.422v-4.6Zm0,6.1a18,18,0,0,0,3.536-.482,18.592,18.592,0,0,1,.451,3.5H12.25Zm0,4.51h3.986a18.638,18.638,0,0,1-.451,3.5,18,18,0,0,0-3.536-.482Zm0,9.117v-4.6a16.515,16.515,0,0,1,3.127.422C14.843,18.756,13.8,20.793,12.25,21.362Zm2.989-.587a11.657,11.657,0,0,0,1.577-3.16,10.7,10.7,0,0,1,1.846.858A10.036,10.036,0,0,1,15.239,20.774Zm4.4-3.466a12.123,12.123,0,0,0-2.41-1.137,20.132,20.132,0,0,0,.511-3.926h3.735A9.958,9.958,0,0,1,19.636,17.308Z" fill="#fff"/>
  </g>
</svg>
