<svg id="whatsapp" xmlns="http://www.w3.org/2000/svg" width="30" height="30" viewBox="0 0 30 30">
  <defs>
    <style>
      .cls-1 {
        fill: #fff;
      }
    </style>
  </defs>
  <path id="Trazado_26" data-name="Trazado 26" class="cls-1" d="M144.85,136.1a6.955,6.955,0,0,0-5.89,10.645l.164.263-.7,2.565,2.629-.691.252.152a6.949,6.949,0,0,0,3.537.966h0a6.95,6.95,0,0,0,.012-13.9Zm4.093,9.931a2.136,2.136,0,0,1-1.411,1,2.868,2.868,0,0,1-1.317-.082,12.022,12.022,0,0,1-1.189-.439,9.259,9.259,0,0,1-3.566-3.156,4.1,4.1,0,0,1-.855-2.161,2.341,2.341,0,0,1,.732-1.745.785.785,0,0,1,.556-.263c.141,0,.275,0,.4.006s.3-.053.468.357.591,1.446.644,1.552a.381.381,0,0,1,.018.363,1.335,1.335,0,0,1-.211.351c-.105.123-.217.269-.31.363s-.211.217-.094.427a6.318,6.318,0,0,0,1.159,1.446,5.613,5.613,0,0,0,1.68,1.036c.211.105.334.088.451-.053s.521-.609.662-.82.275-.176.468-.105,1.218.574,1.429.679.351.158.4.246A1.764,1.764,0,0,1,148.943,146.031Z" transform="translate(-129.815 -128.121)"/>
  <path id="Trazado_27" data-name="Trazado 27" class="cls-1" d="M15,0A15,15,0,1,0,30,15,15,15,0,0,0,15,0Zm8.4,14.93A8.38,8.38,0,0,1,15.035,23.3h-.006a8.355,8.355,0,0,1-4-1.02L6.6,23.438,7.781,19.1A8.37,8.37,0,1,1,23.4,14.93Z" transform="translate(0 0)"/>
</svg>
